<svg xmlns="http://www.w3.org/2000/svg" xmlns:xlink="http://www.w3.org/1999/xlink" version="1.1" id="609763270" x="0px" y="0px" width="100%" height="100%" viewBox="0 0 610.811 324.732" enable-background="new 0 0 610.811 324.732" xml:space="preserve" preserveAspectRatio="none" class="element svg-element">
<path id="eqxiu" fill="#08A1EF" d="M125.494-0.001h469.258v324.732H125.494V-0.001z M594.752-0.001v324.732  c8.878,0,16.059-7.188,16.059-16.059V16.058C610.811,7.188,603.623-0.001,594.752-0.001z M112.635,6.439L3.201,152.747  c-4.268,5.703-4.268,13.533,0,19.238l109.434,146.309c3.032,4.055,7.797,6.439,12.859,6.439V-0.001  C120.432-0.001,115.667,2.387,112.635,6.439z M75.487,184.372c-12.154,0-22.005-9.852-22.005-22.005  c0-12.153,9.851-22.005,22.005-22.005c12.154,0,22.005,9.852,22.005,22.005C97.492,174.52,87.641,184.372,75.487,184.372z" style="fill: rgb(242, 182, 70);"></path>
</svg>